<svg width="34" height="41" fill="none" xmlns="http://www.w3.org/2000/svg"><path d="M28.402 28.401L16.637 40.166 4.873 28.402a16.638 16.638 0 1123.529 0z" fill="#E08F40"/><path fill-rule="evenodd" clip-rule="evenodd" d="M12.887 7.006a3.366 3.366 0 00-1.193.332 3.266 3.266 0 00-1.513 1.5c-.22.44-.325.863-.34 1.364-.016.57.09 1.06.34 1.562a3.335 3.335 0 003.559 1.79c.178-.03.41-.092.58-.154.163-.06.47-.21.611-.297.41-.256.805-.647 1.063-1.054.089-.14.24-.445.3-.606.263-.71.27-1.51.02-2.23a3.32 3.32 0 00-2.826-2.203 5.68 5.68 0 00-.6-.004zM24.63 9.501a.828.828 0 00-.52 1.203 1 1 0 00.315.313.894.894 0 00.292.098c.045.001-.046.014-.254.035a3.348 3.348 0 00-2.103 1.074 3.27 3.27 0 00-.855 2.062l-.009.149h-.833v.818H29v-.818h-.837v-.102a3.296 3.296 0 00-1.504-2.659c-.48-.317-1.008-.492-1.64-.544l-.1-.008.087-.018a.955.955 0 00.35-.165.82.82 0 00.303-.686.758.758 0 00-.24-.534.752.752 0 00-.556-.237.676.676 0 00-.233.019zm-14.411 4.93c-.33.007-.99.049-1.166.074L9 14.512V26h8.825l.003-3.472.003-3.473 1.106 1.337a151.66 151.66 0 001.17 1.404c.095.102.244.207.398.28.152.074.245.102.4.12.307.034.685-.105.947-.35.069-.064.113-.144 1.11-2.013 1.15-2.155 1.048-1.985 1.248-2.105.202-.121.441-.215 1.159-.455.261-.087.545-.183.631-.214.863-.307 1.272-.587 1.323-.906l.01-.07-2.5.004-2.5.003-.663 1.441c-.523 1.138-.665 1.438-.677 1.426-.008-.01-.646-.937-1.418-2.062a151.603 151.603 0 00-1.436-2.073c-.106-.093-.4-.197-.72-.255a11.342 11.342 0 00-1.743-.13l-.167.004-1.098 4.258a3271.5 3271.5 0 01-1.17 4.535c-.05.197-.074.271-.081.255-.005-.013-.533-2.054-1.173-4.535l-1.165-4.513a11.352 11.352 0 00-.603-.01z" fill="#fff"/></svg>