<svg width="34" height="41" fill="none" xmlns="http://www.w3.org/2000/svg"><path d="M28.402 28.401L16.637 40.166 4.873 28.402a16.638 16.638 0 1123.529 0z" fill="#E08F40"/><path fill-rule="evenodd" clip-rule="evenodd" d="M9.514 11.15c.02 5.304.023 5.345.27 6.1.204.62.384 1.025.658 1.474a6.382 6.382 0 004.178 2.925c.409.085.663.106 1.265.107.534 0 .827-.02 1.115-.079 1.754-.35 3.174-1.285 4.142-2.724.29-.43.556-.96.76-1.509.04-.112.076-.206.077-.208a4.64 4.64 0 01.285-.026c.797-.06 1.433-.266 2.025-.658.575-.38 1.013-.881 1.351-1.546.29-.569.36-.919.36-1.807 0-.493-.021-.669-.12-.97-.36-1.104-1.067-1.932-2.058-2.407a3.905 3.905 0 00-1.245-.36c-.375-.044-.343-.034-.345-.104a86.594 86.594 0 01-.005-.71L22.224 8h-8.06v3.614l.591.488.861.708.269.22v4.351l-.106.073c-.105.072-.107.073-.377.089-.148.009-1.067.017-2.04.017l-1.77.001-.114-.111-.113-.111.001-2.153.001-2.152.134-.107.86-.7.726-.594V8H9.501l.013 3.15zm13.239.14c.65.213 1.096.63 1.375 1.286.097.229.118.388.106.808-.013.435-.055.61-.229.941-.299.572-1.027 1.07-1.621 1.108l-.17.01.004-1.973.005-2.119.001-.143.172.01c.115.007.231.03.357.072zm-9.349 1.054a.506.506 0 00-.303.485c0 .307.22.532.524.534.32.004.54-.22.54-.547 0-.224-.106-.385-.323-.486a.474.474 0 00-.438.014zM9.472 22.503c-.81.002-1.472.008-1.472.012 0 .044.722 1.213 1.126 1.825.235.355.31.427.59.563l.201.097h5.376c6.226 0 6.6-.008 6.848-.133.213-.109.428-.41 1.243-1.746.183-.3.345-.56.36-.576.014-.017.02-.037.012-.045-.012-.012-10.428-.01-14.284.003z" fill="#fff"/></svg>