<svg width="34" height="41" fill="none" xmlns="http://www.w3.org/2000/svg"><path d="M28.402 28.401L16.637 40.166 4.873 28.402a16.638 16.638 0 1123.529 0z" fill="#5A9D32"/><path fill-rule="evenodd" clip-rule="evenodd" d="M11.406 6.419a299.598 299.598 0 01-2.732 3.555 501.43 501.43 0 00-2.742 3.59c-1.127 1.486-1.154 1.671-.25 1.732.471.032.538 0 .858-.406.368-.467 2.034-2.677 4.18-5.543.716-.957 1.407-1.857 1.536-2 .454-.506.66-.37 1.846 1.217.608.814 1.702 2.262 2.432 3.219.73.957 1.623 2.144 1.985 2.638l.658.899.575-.03c1.109-.055 1.572.653-6.315-9.654-.419-.548-.523-.634-.77-.636-.104 0-.663.628-1.261 1.419zm.795 2.574c-.274.363-1.045 1.373-1.713 2.246-.667.873-1.792 2.354-2.5 3.292L6.7 16.236v4.303h3.335v-2.385c0-1.423.048-2.476.119-2.61.112-.21.264-.224 2.507-.224 1.704 0 2.427.04 2.526.14.098.099.138.842.138 2.608v2.47h3.334v-4.376l-1.914-2.537c-2.056-2.726-3.81-5.027-3.956-5.19-.05-.055-.314.196-.588.558zm1.416 2.221c.491.253.828.913.813 1.593-.015.656-.23 1.029-.83 1.44-1.039.714-2.645-.168-2.645-1.451 0-1.409 1.393-2.236 2.662-1.582zm11.258.076c-.584.684-2.65 3.519-2.65 3.636 0 .244.287.38.883.416l.59.036-.97 1.25c-.828 1.068-.951 1.282-.847 1.478.098.185.242.23.75.23.345 0 .628.038.628.086 0 .048-.415.607-.92 1.242-.882 1.108-1.06 1.47-.8 1.631.065.041.634.07 1.265.065l1.145-.009v1.855h-4.37v-.73c0-.414-.06-.792-.138-.87-.104-.105-1.747-.139-6.698-.138-3.608.001-6.622.042-6.698.09-.077.05-.153.42-.172.839-.034.726-.046.752-.368.808-.429.076-.63.377-.422.63.137.166 1.293.181 12.01.154l11.858-.03v-.695l-1.24-.033-1.241-.033.033-.895.034-.895 1.085-.024c.597-.014 1.154-.052 1.236-.084.317-.123.12-.548-.768-1.65-.506-.627-.92-1.177-.92-1.222 0-.045.291-.097.648-.116 1.056-.057 1.047-.202-.104-1.672l-.987-1.262.591-.036c.601-.037.886-.172.886-.42 0-.15-2.59-3.663-2.804-3.804-.203-.135-.287-.107-.525.172zm-12.61.755c-.172.117-.39.551-.39.78 0 .286.53.755.853.755.667 0 1.037-1.065.501-1.443-.269-.19-.75-.236-.963-.092zm-1.195 6.348v2.146h3.335v-4.291H11.07v2.145z" fill="#fff"/></svg>