<svg width="34" height="41" fill="none" xmlns="http://www.w3.org/2000/svg"><path d="M28.402 28.401L16.637 40.166 4.873 28.402a16.638 16.638 0 1123.529 0z" fill="#5A9D32"/><path fill-rule="evenodd" clip-rule="evenodd" d="M11.189 8.59a.668.668 0 00-.383.35c-.077.144-.08.307-.08 4.311v4.162L8 20.325l.023 4.175.113.164a.799.799 0 00.296.25c.182.086.201.086 3.753.086h3.57v-2.178c0-1.816.01-2.191.06-2.256.055-.073.125-.08.93-.092.48-.006.913-.002.965.01.234.057.225-.035.225 2.333V25h2.212c2.212 0 2.213 0 2.397-.091.102-.05.243-.161.313-.247l.128-.155.012-7.636c.007-4.2.001-7.696-.012-7.769-.032-.172-.248-.407-.46-.5-.16-.07-.438-.074-5.68-.073-4.814 0-5.53.008-5.656.061zm3.645 3.05v1.787l-.21.204-.942-.013c-.789-.01-.952-.022-1.007-.076-.056-.054-.066-.203-.066-1.003 0-.516.012-.958.027-.981.06-.093.245-.113 1.1-.115l.892-.002.206.198zm2.989-.153c.05.026.105.067.122.091.017.025.03.458.031.963.001.987-.005 1.014-.224 1.067-.051.013-.495.017-.985.01-.827-.011-.897-.018-.952-.09-.047-.063-.06-.268-.06-.995 0-.935.012-1.01.168-1.064.13-.045 1.807-.03 1.9.018zm3.228.03c.06.048.07.172.07 1.016 0 .845-.01.969-.07 1.017-.053.043-.28.059-.951.068-.486.007-.925.003-.976-.01-.22-.053-.225-.08-.224-1.067 0-.505.014-.938.031-.962.087-.124.21-.138 1.125-.128.711.007.942.023.995.065zm-6.283 3.09c.055.075.066.24.066.991 0 .848-.005.907-.084.983-.08.076-.14.08-1.034.08-.825 0-.96-.008-1.027-.066-.07-.061-.077-.149-.077-1.03 0-.875.007-.967.074-1.005.044-.024.463-.041 1.045-.042.958-.001.973 0 1.037.089zm3.132-.023c.07.06.077.147.077.991 0 .871-.005.93-.084 1.006-.079.076-.14.08-1.017.08-.778 0-.95-.01-1.027-.062-.092-.062-.093-.077-.093-1.01 0-.805.01-.955.066-1.009.056-.054.21-.063 1.034-.063.841 0 .978.008 1.044.067zm3.154-.004c.056.054.066.204.066 1.01 0 .932-.001.947-.093 1.009-.078.052-.25.063-1.027.063-.878 0-.938-.005-1.017-.081-.08-.076-.084-.135-.084-.999 0-.797.01-.927.07-.991.063-.068.152-.074 1.044-.074.831 0 .985.01 1.041.063zm-6.286 3.103c.055.075.066.24.066.991 0 .848-.005.907-.084.983-.08.076-.14.081-1.041.081-.867 0-.964-.007-1.026-.072-.057-.062-.068-.198-.07-.9-.002-.456-.003-.878-.002-.938.003-.227.042-.235 1.113-.235.964 0 .98.001 1.044.09zm3.132-.023c.07.061.077.147.077.991 0 .871-.005.93-.084 1.006-.079.076-.14.081-1.034.081-.825 0-.96-.009-1.027-.067-.07-.061-.076-.147-.076-.998 0-.81.009-.942.069-1.006.063-.068.153-.074 1.034-.074.839 0 .975.009 1.041.067zm3.144 0c.07.061.076.147.076.998 0 .81-.009.942-.07 1.006-.063.068-.152.074-1.026.074-.902 0-.962-.005-1.041-.08-.08-.077-.084-.136-.084-1 0-.797.01-.927.07-.991.063-.068.152-.074 1.033-.074.84 0 .975.009 1.042.067zm-6.294 3.05c.079.076.084.134.084.982 0 .75-.011.917-.066.992-.064.088-.08.09-1.044.09-.835 0-.99-.01-1.046-.064-.056-.054-.066-.202-.066-.998 0-.814.01-.945.07-1.01.063-.067.152-.073 1.027-.073.901 0 .962.004 1.04.08zm6.294-.014c.07.06.076.147.076.998 0 .81-.009.941-.07 1.006-.063.067-.152.074-1.033.074-.839 0-.975-.009-1.041-.067-.07-.061-.077-.147-.077-.992 0-.87.005-.93.084-1.006.079-.076.14-.08 1.034-.08.825 0 .96.008 1.027.067zM11.961 6.038c-.02.022-.076.153-.125.29a1.7 1.7 0 01-.126.291c-.02.023-.093.04-.176.04-.328 0-.556.036-.587.09-.044.078-.01.117.272.311.139.096.26.192.27.215.008.022-.03.171-.085.33-.078.223-.094.302-.069.34.061.09.147.068.41-.108.142-.095.284-.173.316-.173.03 0 .152.065.268.144.278.19.347.22.407.172.065-.05.059-.13-.03-.376-.116-.317-.105-.35.181-.556.304-.219.333-.26.236-.334-.06-.047-.12-.055-.386-.055-.23 0-.323-.01-.348-.04a1.7 1.7 0 01-.126-.29 1.704 1.704 0 00-.125-.29.122.122 0 00-.177 0z" fill="#fff"/><path fill-rule="evenodd" clip-rule="evenodd" d="M14.202 6.038a1.8 1.8 0 00-.125.29 1.71 1.71 0 01-.125.291c-.02.023-.094.04-.177.04-.328 0-.555.036-.587.09-.044.078-.01.117.272.311.139.096.26.192.27.215.009.022-.03.171-.085.33-.077.223-.093.302-.068.34.06.09.147.068.41-.108.142-.095.284-.173.315-.173.031 0 .152.065.268.144.278.19.347.22.407.172.066-.05.06-.13-.03-.376-.115-.317-.104-.35.181-.556.304-.219.333-.26.236-.334-.06-.047-.12-.055-.385-.055-.23 0-.323-.01-.349-.04a1.7 1.7 0 01-.125-.29 1.693 1.693 0 00-.126-.29.122.122 0 00-.177 0zm2.414 0a1.71 1.71 0 00-.125.29 1.71 1.71 0 01-.125.291c-.02.023-.094.04-.177.04-.328 0-.556.036-.587.09-.044.078-.01.117.272.311.139.096.26.192.27.215.008.022-.03.171-.085.33-.078.223-.094.302-.068.34.06.09.146.068.409-.108.142-.095.284-.173.316-.173.031 0 .152.065.268.144.278.19.347.22.407.172.065-.05.059-.13-.03-.376-.116-.317-.105-.35.181-.556.304-.219.333-.26.236-.334-.06-.047-.12-.055-.386-.055-.229 0-.323-.01-.348-.04a1.692 1.692 0 01-.125-.29 1.701 1.701 0 00-.126-.29.122.122 0 00-.177 0zm2.414 0c-.02.022-.076.153-.125.29a1.71 1.71 0 01-.126.291c-.02.023-.093.04-.176.04-.328 0-.556.036-.587.09-.044.078-.01.117.272.311.139.096.26.192.27.215.008.022-.03.171-.085.33-.078.223-.094.302-.069.34.061.09.147.068.41-.108.142-.095.284-.173.315-.173.032 0 .153.065.269.144.278.19.347.22.407.172.065-.05.059-.13-.03-.376-.116-.317-.105-.35.181-.556.304-.219.333-.26.236-.334-.06-.047-.12-.055-.386-.055-.23 0-.323-.01-.348-.04a1.692 1.692 0 01-.126-.29 1.701 1.701 0 00-.125-.29.122.122 0 00-.177 0z" fill="#fff"/><path fill-rule="evenodd" clip-rule="evenodd" d="M21.271 6.038a1.8 1.8 0 00-.125.29c-.05.139-.106.27-.125.291-.02.023-.094.04-.177.04-.328 0-.555.036-.587.09-.044.078-.01.117.272.311.139.096.26.192.27.215.009.022-.03.171-.085.33-.077.223-.093.302-.068.34.06.09.147.068.41-.108.141-.095.284-.173.315-.173.031 0 .152.065.268.144.278.19.347.22.407.172.066-.05.06-.13-.03-.376-.115-.317-.104-.35.181-.556.304-.219.333-.26.236-.334-.06-.047-.12-.055-.385-.055-.23 0-.323-.01-.349-.04a1.703 1.703 0 01-.125-.29 1.701 1.701 0 00-.126-.29.122.122 0 00-.177 0z" fill="#fff"/></svg>