<svg width="34" height="41" fill="none" xmlns="http://www.w3.org/2000/svg"><path d="M28.402 28.401L16.637 40.166 4.873 28.402a16.638 16.638 0 1123.529 0z" fill="#5A9D32"/><path fill-rule="evenodd" clip-rule="evenodd" d="M5.829 8.029a1.19 1.19 0 00-.645.54l-.154.255-.015 8.088L5 25h2.294v-4.474h18.405V25h2.292v-6.711H7.294V8.918l-.156-.292c-.2-.373-.503-.587-.879-.62a1.416 1.416 0 00-.43.023zm4.594 1.66a2.025 2.025 0 00-1.565 2.315c.078.44.22.717.536 1.046.81.846 2.169.852 3.025.013.817-.8.817-2.004 0-2.805a2.073 2.073 0 00-1.127-.584c-.393-.07-.468-.07-.87.015zm4.39 1.12a1.02 1.02 0 00-.557.564c-.072.168-.086.488-.086 1.866v1.663l-2.334.016c-2.133.015-2.352.025-2.54.116-.302.147-.406.33-.406.718 0 .388.104.572.406.719.198.096.693.1 12.271.114l6.433.014-.019-1.542c-.017-1.426-.027-1.56-.135-1.787-.207-.435-.698-.782-1.309-.923-.22-.052-11.111-1.643-11.391-1.64-.06 0-.21.047-.334.102z" fill="#fff"/></svg>