<svg width="34" height="41" fill="none" xmlns="http://www.w3.org/2000/svg"><path d="M28.402 28.401L16.637 40.166 4.873 28.402a16.638 16.638 0 1123.529 0z" fill="#9C8762"/><path fill-rule="evenodd" clip-rule="evenodd" d="M13.891 6.23c.604-.323 1.558-.306 2.942.054.385.1 1.177.4 1.51.574 1.41.734 2.508 1.907 3.006 3.216.118.31.3 1.068.33 1.373a.655.655 0 01-.037.35c-.056.148-.255.503-.484.873l-.022-.008s-1.68 3.128-3.427 4.455c-1.274.968-1.346 1.505-3.677 1.807-2.33.302-2.536.166-3.522-.903-.25-.271-.482-.651-.723-1.187l-.235-.521-.303.078a5.227 5.227 0 00-1.207.516 8.365 8.365 0 00-1.068.8c-.173.157-.24.202-.253.171-.026-.058.316-.97.435-1.161.05-.081.156-.245.234-.363.078-.118.137-.226.13-.24-.017-.038-.316.012-.55.093-.24.083-.516.24-.688.39-.064.056-.125.098-.136.094-.036-.012.148-.461.261-.637.3-.464.703-.783 1.355-1.073.368-.164.58-.234 1.102-.364a2.89 2.89 0 00.386-.112c.003-.01.011-.177.017-.37.01-.34.008-.356-.07-.418-.167-.133-.565-.571-.745-.822-.237-.33-.49-.882-.543-1.187-.07-.403-.054-.517.146-1.057.197-.535.275-.66.595-.966.514-.49 1.121-.763 1.905-.856.308-.036.913-.04 1.004-.006.053.02.079-.011.508-.618.784-1.106 1.354-1.724 1.824-1.975zm.832 4.046a1.584 1.584 0 00-.4-.86c-.17-.184-.196-.201-.433-.296-.304-.122-.47-.143-.826-.103a1.54 1.54 0 00-.563.167c-.398.185-.584.371-.472.471.02.018.181.047.358.066.267.027.38.054.652.154.515.189.767.41 1.109.97.106.174.207.322.225.329.174.064.388-.486.35-.898zm4.315 3.243c.093-.575-.088-1.138-.478-1.49-.358-.322-.98-.461-1.503-.334-.338.082-.783.358-.844.524-.048.128.086.175.727.257.535.07.854.22 1.153.545.25.273.43.6.548.994.094.316.309.047.397-.496zm-9.27-1.514c.063-.167.396-.814.644-1.249a3 3 0 00.174-.332c.004-.041-.168-.08-.48-.106-.567-.047-1.011.139-1.206.505-.126.238-.037.536.257.855.106.115.488.446.534.463.013.005.048-.056.078-.136zm1.79.022a4.434 4.434 0 00-.151-.441c-.047-.084-.108-.108-.175-.069-.071.042-.329.739-.374 1.012-.086.52-.06 1.21.065 1.738.073.309.317.893.482 1.154.817 1.292 2.734 1.825 4.454 1.237.321-.11.926-.4 1.137-.545.407-.28.656-.59.544-.679-.027-.021-.16-.029-.344-.019a8.733 8.733 0 01-2.155-.146c-.396-.084-1.109-.34-1.4-.503-1.026-.577-1.692-1.452-2.083-2.74z" fill="#fff"/><path fill-rule="evenodd" clip-rule="evenodd" d="M9.904 18.872a4.97 4.97 0 00-.537.036c-.956.15-1.666.487-2.263 1.078-.36.356-.688.828-.908 1.308l-.083.181-.029 1.131.117-.249c.497-1.067 1.054-1.74 1.728-2.09l.199-.102-.016.77-.028 1.411-.014.642-.16.085a4.245 4.245 0 00-1.707 1.741c-.168.334-.172.35-.188.789L6 26l.128-.258c.53-1.07 1.27-1.753 2.277-2.104 1.202-.42 2.803-.338 5.441.279l.282.066.897.21c2.36.554 3.334.7 4.657.7 1.878.001 3.74-.388 5.389-1.125.437-.195.94-.463 1.264-.674l.155-.1v-.107c0-.058.02-.923.043-1.922l.048-2.155.006-.337-.279.172c-1.13.695-2.634 1.245-4.125 1.51-.821.147-1.515.207-2.39.207-1.357 0-2.154-.114-4.662-.695-.317.073-.685.138-1.12.197-.984.133-1.648.198-2.148.169-.007.524-.056 2.615-.064 2.623a4.643 4.643 0 01-.367-.037c-.816-.099-1.65-.112-2.19-.035-.135.02-.246.033-.249.029-.003-.005.065-2.554.072-2.675.003-.041.403-.137.677-.162a8.793 8.793 0 011.147.018l.066.007c-.345-.185-.642-.486-1.05-.929zm15.79 3.668c.003-.002.02-.572.037-1.267.017-.694.028-1.264.025-1.266a4.845 4.845 0 00-.294.123c-.702.307-1.644.625-2.374.8l-.155.038v.153c0 .085-.01.668-.025 1.297-.014.63-.02 1.15-.013 1.157a1.84 1.84 0 00.326-.076c.776-.22 1.457-.475 2.144-.802l.329-.157zm-10.637-1.942c-.648-.164-1.29-.324-1.425-.355-.56-.13-.71-.157-.718-.131a95.16 95.16 0 00-.055 2.724c.007.009.214.059.462.112.248.053.932.207 1.522.343 1.154.265 1.936.432 1.952.416.007-.007.07-2.287.073-2.606v-.066l-.316-.07a87.401 87.401 0 01-1.495-.367zm6.797 2.234c.013-.538.025-1.13.027-1.316l.002-.338-.06.003a17.702 17.702 0 01-1.449.147 12.44 12.44 0 01-2.149-.06l-.304-.039-.011.195c-.024.393-.059 2.445-.042 2.46.027.025.608.085 1.068.11a13.91 13.91 0 002.733-.158l.16-.027.025-.977z" fill="#fff"/><path fill-rule="evenodd" clip-rule="evenodd" d="M16.802 18.977c1.567.327 3.323.382 5.006.105 2.66-.437 4.611-1.637 5.087-3.127.313-.982-.08-2.034-1.077-2.89-.737-.63-1.739-1.136-2.911-1.483a14.5 14.5 0 01-.46.8l-.025-.01s-1.991 3.732-4.059 5.321c-.328.252-.589.48-.824.685a8.637 8.637 0 01-.737.599zm8.586-4.596c-.184-.377-.75-.677-1.437-.76a4.322 4.322 0 00-.94.01c-.579.09-1.043.33-1.233.64-.072.119-.077.139-.077.3 0 .153.007.189.063.29.171.309.621.571 1.185.69.276.059.786.08 1.068.044 1.026-.13 1.637-.67 1.371-1.214zm-1.878 2.343c-.25-.231-.655-.402-1.123-.474a4.706 4.706 0 00-.408-.04c-1.155-.053-2.112.505-1.932 1.126.072.247.277.45.625.62.377.185.775.267 1.286.267.7-.001 1.263-.176 1.59-.495.17-.165.23-.29.23-.48.002-.197-.073-.343-.268-.524z" fill="#fff"/></svg>