<svg width="34" height="41" fill="none" xmlns="http://www.w3.org/2000/svg"><path d="M28.402 28.401L16.637 40.166 4.873 28.402a16.638 16.638 0 1123.529 0z" fill="#9C8762"/><path d="M22.564 13.03V7.688A.68.68 0 0021.892 7H11.109a.68.68 0 00-.674.688v3.788a7.174 7.174 0 012.022-.304c2.034 0 3.934.832 5.326 2.305a4.61 4.61 0 012.76-.93c.71 0 1.396.179 2.021.483zm-4.716-1.17c-.743 0-1.348-.617-1.348-1.376 0-.758.605-1.375 1.348-1.375.743 0 1.347.617 1.347 1.375s-.604 1.376-1.347 1.376zm.319 4.813c-.866-2.51-3.152-4.126-5.71-4.126-.701 0-1.38.138-2.022.373v3.066c0 .38.302.687.674.687h7.058zm3.723 0a.68.68 0 00.674-.687v-1.351a3.318 3.318 0 00-2.021-.712c-.7 0-1.364.223-1.926.626.43.66.753 1.374.96 2.124h2.314z" fill="#fff"/><path d="M27.102 17.344V23h-1.797v-3.645c-1.82 1-5.1 2.453-8.805 2.453-3.704 0-6.984-1.452-8.805-2.453V23H5.898v-5.656A1.84 1.84 0 015 15.756c0-1.012.805-1.833 1.797-1.833.992 0 1.797.82 1.797 1.833 0 .643-.324 1.207-.814 1.535 1.319.805 4.812 2.683 8.72 2.683 3.908 0 7.401-1.878 8.72-2.683a1.842 1.842 0 01-.814-1.535c0-1.012.805-1.833 1.797-1.833.992 0 1.797.82 1.797 1.833a1.84 1.84 0 01-.898 1.588z" fill="#fff"/></svg>