<svg width="34" height="41" fill="none" xmlns="http://www.w3.org/2000/svg"><path d="M28.402 28.401L16.637 40.166 4.873 28.402a16.638 16.638 0 1123.529 0z" fill="#9C8762"/><path fill-rule="evenodd" clip-rule="evenodd" d="M15.972 4.009a7.299 7.299 0 00-2.55.653 7.498 7.498 0 00-3.53 3.33c-.417.79-.744 1.925-.79 2.74-.01.203-.028.43-.038.507l-.017.14h7.422c4.082 0 7.43-.008 7.44-.018.044-.043-.048-1.028-.133-1.439a7.404 7.404 0 00-6.102-5.834c-.387-.062-1.37-.108-1.702-.08zM8.28 11.83c-.223.078-.444.314-.483.516a.803.803 0 00.163.601c.163.204.315.237 1.081.237h.699v9.452l-.708.017c-.777.018-.884.046-1.094.293-.279.326-.14.894.26 1.059.215.088 16.38.088 16.596 0 .4-.165.539-.733.26-1.06-.21-.246-.317-.274-1.093-.293l-.709-.016v-9.452h.7c.765 0 .918-.033 1.08-.237a.8.8 0 00.162-.606c-.04-.21-.294-.465-.526-.528-.124-.034-2.471-.047-8.194-.046-6.799.002-8.046.011-8.194.063zm5.47 6.085v4.73h-2.572v-9.46h2.572v4.73zm4.043.01l.011 4.72h-2.616v-4.702c0-2.586.014-4.715.03-4.73.016-.017.6-.025 1.297-.019l1.267.012.006 2.36.005 2.36zm4.02-.01v4.73h-2.571v-9.46h2.572v4.73zM6.4 24.663a.72.72 0 00-.397.577c-.028.257.129.531.378.661l.19.099h19.848l.19-.099c.215-.112.39-.386.39-.61 0-.225-.174-.499-.39-.611l-.19-.1-9.92.002c-9.577 0-9.926.003-10.099.08z" fill="#fff"/></svg>