<svg viewBox="0 0 123 117" fill="none" xmlns="http://www.w3.org/2000/svg"><g filter="url(#filter0_d_827_290)"><path d="M0 0h102.111v67.163c0 16.016-12.983 29-29 29H0V0z" fill="#E08F40"/><path d="M67.82 43.598c-4.424.206-4.95 2.523-7.234.36-2.318-2.198-3.268-2.385-6.097-2.625-2.829-.24-3.996-1.562-3.878-2.162.118-.6.957-.496.88-.858-.135-.639-2.465-.464-2.862-1.716-.405-1.278-.553-1.904-.778-2.617-.628-1.988.491-2.522.491-2.522 2.217-.893 4.66-2.03 7.113-3.508 1.272-.766-.39-2.316 2.156-3.663a71.04 71.04 0 014.974-2.38c.013-.013.023-.025.04-.038.652-.461 1.846-1.11 1.846-2.067 0-2.125 1.7-3.847 3.798-3.847 1.099 0 2.064.495 2.782 1.227 1.342 1.37 2.72.799 3.444.753.017-.002.029 0 .044 0a73.86 73.86 0 0112.622-1.856V7.467h-59.55v.035h-.64v80.361h40.76c8.163-.283 26.704-2.632 26.704-21.775 0-16.81-11.981-22.037-26.615-22.49z" fill="#fff"/><path d="M47.444 58.598v-1.432c0-1.03.224-1.966.67-2.81.448-.843 1.106-1.518 1.975-2.027.87-.508 1.937-.763 3.204-.763 1.304 0 2.39.255 3.26.763.881.509 1.54 1.184 1.974 2.028.447.843.67 1.78.67 2.809v1.432a5.826 5.826 0 01-.67 2.772c-.435.844-1.087 1.52-1.956 2.028s-1.943.763-3.222.763c-1.292 0-2.378-.255-3.26-.763-.869-.509-1.527-1.184-1.974-2.028a5.826 5.826 0 01-.67-2.772zm3.558-1.432v1.432c0 .434.08.85.242 1.247.174.384.435.7.782.949.36.235.795.353 1.304.353.534 0 .969-.118 1.304-.353.335-.249.584-.565.745-.95a3.26 3.26 0 00.242-1.246v-1.432c0-.459-.087-.88-.26-1.265a2.055 2.055 0 00-.764-.949c-.336-.248-.77-.372-1.304-.372-.497 0-.919.124-1.267.372a2.174 2.174 0 00-.782.949 3.235 3.235 0 00-.242 1.265zm9.406 16.668v-1.432c0-1.017.224-1.947.67-2.79a5.206 5.206 0 011.994-2.028c.881-.509 1.962-.763 3.24-.763 1.292 0 2.373.254 3.242.763.869.508 1.527 1.184 1.974 2.027.447.844.67 1.774.67 2.79v1.433c0 1.017-.223 1.947-.67 2.79-.434.844-1.087 1.52-1.956 2.028-.869.509-1.943.763-3.222.763-1.291 0-2.378-.254-3.26-.763-.881-.508-1.552-1.184-2.011-2.028-.447-.843-.67-1.773-.67-2.79zm3.576-1.432v1.432c0 .447.1.868.298 1.265.2.397.472.713.82.949.36.236.776.353 1.248.353.596 0 1.062-.117 1.397-.353.335-.236.565-.552.69-.949a3.86 3.86 0 00.204-1.265v-1.432c0-.447-.087-.862-.26-1.247a2.174 2.174 0 00-.783-.948c-.335-.248-.764-.372-1.285-.372-.522 0-.956.124-1.304.372-.335.235-.59.551-.764.948-.174.385-.26.8-.26 1.247zm3.651-16.575l-13.243 21.17-2.608-1.377 13.244-21.17 2.607 1.377z" fill="#E08F40"/><path d="M17.259 83.525l-6.215-2.405v-1.975l7.83 3.317c.25.11.494.235.727.376.234.141.444.31.629.51.18.193.324.428.43.706.106.273.159.603.159.991 0 .102-.004.223-.013.364a4.06 4.06 0 01-.02.323h-1.43c.014-.052.022-.138.027-.257.004-.124.007-.212.007-.265 0-.255-.04-.458-.12-.607a.958.958 0 00-.337-.364 2.742 2.742 0 00-.497-.244l-1.177-.47zm-6.215 1.705l5.05-2.306 1.965-.542.04 1.381-7.055 3.436V85.23zm0-8.215v-1.823h2.972c.44 0 .785-.066 1.032-.199.247-.136.421-.341.523-.614.101-.273.152-.613.152-1.018a7.3 7.3 0 00-.026-.581c-.018-.216-.04-.434-.066-.654a8.4 8.4 0 00-.113-.641 4.69 4.69 0 00-.146-.542h1.436c.049.154.095.332.14.535.044.198.081.408.112.628.03.216.055.434.073.654.013.216.02.416.02.601 0 .745-.108 1.392-.325 1.943a2.62 2.62 0 01-1.012 1.269c-.463.295-1.064.442-1.8.442h-2.972zm0-5.676v-1.823h9.636v1.823h-9.636zm1.463-8.585l8.173 2.742v1.923l-9.636-3.594v-1.23l1.463.16zm8.173-2.292l-8.173 2.755-1.463.165v-1.235l9.636-3.615v1.93zm-3.58.125h1.436v5.16H17.1v-5.16zm.41-9.523v-1.817a3.74 3.74 0 011.714.535c.494.308.883.738 1.165 1.289.282.55.423 1.217.423 2.002a4.05 4.05 0 01-.317 1.632c-.216.48-.523.892-.92 1.235-.402.34-.883.6-1.443.78a6.22 6.22 0 01-1.9.27h-.734c-.701 0-1.334-.092-1.9-.277a4.15 4.15 0 01-1.442-.793 3.543 3.543 0 01-.926-1.248 4.009 4.009 0 01-.325-1.64c0-.783.146-1.446.437-1.988a3.147 3.147 0 011.185-1.262c.503-.3 1.08-.48 1.734-.542v1.817a2.88 2.88 0 00-1.033.264 1.391 1.391 0 00-.642.622c-.15.273-.225.636-.225 1.09 0 .352.066.663.199.931.132.265.33.485.595.661.26.176.587.309.98.397.388.088.838.132 1.35.132h.748c.49 0 .928-.04 1.317-.12.388-.078.717-.202.986-.37a1.68 1.68 0 00.615-.647c.142-.264.212-.579.212-.945 0-.444-.07-.806-.212-1.083a1.435 1.435 0 00-.622-.641c-.273-.15-.613-.245-1.019-.284zm-6.466-8.123h9.636v1.81h-9.636v-1.81zm0-2.986h1.436v7.75h-1.436v-7.75zm3.978-8.559h1.43v5.062h-1.43v-5.062zm-3.978 4.566h9.636v1.817h-9.636v-1.817zm0-5.914h9.636v1.817h-9.636v-1.817zm6.724-4.594l-6.724-4.063v-1.824h9.636v1.824h-6.724l6.724 4.063v1.817h-9.636v-1.817h6.724zm-6.724-10.541h9.636v1.817h-9.636v-1.817zm0-5.728l5.573 3.799v2.385l-1.602.238V13.97l-3.97-2.57V9.184zm9.636 1.87l-4.355 2.9-1.343-1.222L20.68 8.88v2.174z" fill="#fff"/></g><defs><filter id="filter0_d_827_290" x="-20" y="-15" width="142.111" height="136.164" filterUnits="userSpaceOnUse" color-interpolation-filters="sRGB"><feFlood flood-opacity="0" result="BackgroundImageFix"/><feColorMatrix in="SourceAlpha" values="0 0 0 0 0 0 0 0 0 0 0 0 0 0 0 0 0 0 127 0" result="hardAlpha"/><feOffset dy="5"/><feGaussianBlur stdDeviation="10"/><feComposite in2="hardAlpha" operator="out"/><feColorMatrix values="0 0 0 0 0 0 0 0 0 0 0 0 0 0 0 0 0 0 0.2 0"/><feBlend in2="BackgroundImageFix" result="effect1_dropShadow_827_290"/><feBlend in="SourceGraphic" in2="effect1_dropShadow_827_290" result="shape"/></filter></defs></svg>