<svg width="1026" height="755" fill="none" xmlns="http://www.w3.org/2000/svg"><path d="M231.781 467.725l-12 8.5v4l8.5 10.5 22.5-16 1-5.5-7-10.5-8 5.5-1.5-1-4.5 3 1 1.5z" fill="url(#paint0_linear_1170_120)"/><path d="M279.781 402.725l-24.5 16.5-7.5-10 .5-3 2-2.5-11.5-17.5v-4.5l8.5-5.5 10 14v2.5l3.5 5.5 12.5-8 6.5 9v3.5z" fill="url(#paint1_linear_1170_120)"/><path d="M348.781 332.225v-5l7-4 3 4 2.5-1.5-5.5-7.5v-4.5l9-5.5 5.5 7.5 1.5-1 4 6v2.5l-1.5 1 5 6 .5 4.5-23 14-4.5-6v-5l.5-1-4-4.5z" fill="url(#paint2_linear_1170_120)"/><path d="M467 252c.5 1.5.081 5.625-2.719 7.225-.322.184-.933.585-1.781 1.165-6.53 4.466-27.098 19.517-37.719 27.335-1.666.666-7.481 6.675-10.281 4.275-2.702-2.316-30.652-50.075-46.535-73.787a3.016 3.016 0 01.811-4.179L407 188.141 429 172l5 5.5v4.5l-11.202 8.272c6.313 9.287 20.184 29.228 20.184 29.228S460.845 243.257 467 252z" fill="url(#paint3_linear_1170_120)"/><path d="M457.281 156.225v9l9 12.5 2.5-2 5 7 7-5-1-2 2.5-2.5v-2l19.5-13v-4.5l-11-16.5-22 14L466.5 150l-9.219 6.225z" fill="url(#paint4_linear_1170_120)"/><path d="M493.781 66.225l-11 7-11-41 16.5-10 10 5 35.5 52v6.5l-19.5 12.5-20.5-32z" fill="url(#paint5_linear_1170_120)"/><path d="M501.052 131.185l-.552-6.685 40.5-26 1.5-3.5h5l17.5 26v5.5l-2.5 5-15.5 10-1.5-1.5-6.5 4.5v5l-15 9-5-6.5-2 2-5.816-8.5V139l-3.632.685-6.5-8.5z" fill="url(#paint6_linear_1170_120)"/><path d="M324.781 355.725v-3.5l6-4.5 3 3 5-4-2-3v-4l5-4 11 14v2.5l-19.5 14-8.5-10.5z" fill="url(#paint7_linear_1170_120)"/><path d="M232.281 435.225l-6.5 4.5-7.5-11.5v-3l4.5-3-1.5-2.5 4.5-3 2 2.5 3-2v-1.5l5.5-3.5 7.5 11.5-.5 4-4.5 3-1.5-2-5 3.5v3z" fill="url(#paint8_linear_1170_120)"/><path d="M117 417l.5-7.5 18-11 5 7.5v5l-2 1 18 27 5-3 5.5 7-.5 4.5 1.5 2.5v2l-4 2.5-2-3.5-13.861 9.5L135.5 443l-2 1-6-7.5v-6L117 417z" fill="url(#paint9_linear_1170_120)"/><path d="M150 419.5l1-23 2.5-2.5 23.5 1.5c-.667 7-2.1 22-2.5 24-.4 2-5.167 7.5-7.5 10-3.333-.333-10.3-1-11.5-1-1.2 0-4.167-6-5.5-9z" fill="url(#paint10_linear_1170_120)"/><path d="M282.282 432.725l-22 15.5v3l-12.067 7.341 6 8.5 8.567-5.341 1.5 3 3-3 9 12 13.5-9v-3l-6.5-9.5 13.5-9-1-7.5-4-7-8 5.5-1.5-1.5z" fill="url(#paint11_linear_1170_120)"/><path d="M350.781 441.725L338 449l-14.219 6.725 1-1-21-30-1-6 25.5-17 21.5 33 1 7z" fill="url(#paint12_linear_1170_120)"/><path d="M128.781 510.225l-22 17.5-7.5 10.5-8.5 3L19.5 436.5l41.781-26.275c8.15 13.216 15.112 24.591 24.219 38.275.98 1.472-20.5 15-20.5 15L76 479l7.426-4.774c4.966-3.284 10.891-7.229 13.574-8.726 14.376 21.223 26.958 38.559 31.781 44.725z" fill="url(#paint13_linear_1170_120)"/><path d="M10 366l12.5-8.5 29.5 42L10 427 .5 413.5v-5l25-17-3-4.5-3.5 2-6.5-9.5 2-4L10 369v-3z" fill="url(#paint14_linear_1170_120)"/><path d="M488.281 415.738l6.848-5.195v-1.732l3.913-2.078-1.304-1.732v-3.81l3.261-1.732 2.934 4.156 2.609-1.991.978.952 5.98-3.117L524 414.5l10 17.5v5l-17.5 11.5-.827 2.568-6.196 4.156-21.196-36.022v-3.464z" fill="url(#paint15_linear_1170_120)"/><path d="M458 402.5l-5.5 2.5-13-20.5-1.5-2.5 1.5-7 18.5 27.5z" fill="url(#paint16_linear_1170_120)"/><path d="M1019 .5l-566.5 376 8.5 12L1026 12l-7-11.5z" fill="url(#paint17_linear_1170_120)"/><path d="M704 326L506.5 457l11 17.5 198.5-134-12-14.5z" fill="url(#paint18_linear_1170_120)"/><path d="M589 133.5s110 165 115.5 175 82 135.5 82 135.5 27 47.5 41.5 65.5 57.5 78 57.5 78l-17 3-191-294L490 7.5 502.5 5 589 133.5z" fill="url(#paint19_linear_1170_120)"/><path d="M541 83L71 392l8 10L547.5 92.5 541 83z" fill="url(#paint20_linear_1170_120)"/><path d="M11 498l5.5-3.5 17 24.5-4 2.5-1-1.5-4 2.5v4L33 537l28.5-18.5V515L32 473.5l-19 12v3l-5 3v3l3 3.5z" fill="url(#paint21_linear_1170_120)"/><path d="M343.002 401.5l37.5-25.5h6.5l10.5 5.5 9.5-5.5 83.5 184.5-24.501 12.5-51.5 23.5-41 18.5-20.499-30-9.501-12 9.501-6 7.914 9.825L391.501 555l-7.5-11.5c-2.5 1.667-9.5 5-9.5 5s-4 1.5-10 1.5c-4.799 0-14.666-9.5-18-13-8.333-9.333-28.7-28.7-31.5-35.5-2.8-6.8 5.832-15.833 10.999-19.5l33.502-24.5c2-1 8-6.5 8-9.5s1.5-1.5 0-5.5-10.002-15.5-14.5-22.5c-2.892-4.5-.5-4 0-6 .4-1.6-1.167-3-2-3.5l-8-9z" fill="url(#paint22_linear_1170_120)"/><path d="M313.191 607.504l-26.734 13.949v4.649l5.812 8.718 26.734-12.786v-4.65l-5.812-9.88z" fill="url(#paint23_linear_1170_120)"/><path d="M285.295 579.608l-1.163-6.975-5.812-9.299v-4.068l9.88-6.393 9.299 14.53 2.906-1.744 15.111 27.316 3.487-1.744 3.487 7.556-19.76 11.623-17.435-30.802z" fill="url(#paint24_linear_1170_120)"/><path d="M226.5 642.5l8.5-4.5 4 8-6.5 3.5v6l3.5 5.5 8-4.095 7.004 12.595 4.496 8 24-12 .5-6-5.5-8 5-3 .5-6-12-21-6.5 3-7-15 7-3.5-.5-4.5-16-25.5-6.5 3.276L225 556.5 192.885 573l.001 4.863L226.5 642.5z" fill="url(#paint25_linear_1170_120)"/><path d="M326 748l-35-58.5-6.5 4 1 3.5-17 9.5v4l10 16 16.5-9 23.5 37.5 7.5-4.5V748z" fill="url(#paint26_linear_1170_120)"/><path d="M339.5 682.5v4l7.692 13.462L348 701l28-16.5v-3l-9-15.5-27.5 16.5z" fill="url(#paint27_linear_1170_120)"/><path d="M343 728.5v4.5l9.5 16.5 9.5-4.5v-4l-10.5-17.5-8.5 5z" fill="url(#paint28_linear_1170_120)"/><g filter="url(#filter0_d_1170_120)"><circle cx="538" cy="442" r="12" fill="#E08F40" stroke="#fff" stroke-width="4"/><path d="M539.254 437.451V446h-1.688v-6.604l-2.027.645v-1.33l3.533-1.26h.182z" fill="#fff"/></g><g filter="url(#filter1_d_1170_120)"><circle cx="468" cy="483" r="10" fill="#fff"/><path d="M470.977 485.682V487h-5.836v-1.125l2.759-2.959c.278-.309.496-.58.657-.814a3.21 3.21 0 00.345-.639c.075-.192.112-.373.112-.545 0-.258-.043-.479-.129-.662a.961.961 0 00-.381-.434 1.141 1.141 0 00-.609-.152c-.258 0-.481.062-.668.187a1.185 1.185 0 00-.422.522 1.93 1.93 0 00-.141.756h-1.693c0-.508.121-.973.363-1.395a2.661 2.661 0 011.025-1.013c.442-.254.965-.381 1.571-.381.597 0 1.101.097 1.511.293.414.191.727.468.938.832.215.359.322.789.322 1.289 0 .281-.045.556-.135.826a3.687 3.687 0 01-.386.797 6.466 6.466 0 01-.598.797c-.234.269-.494.549-.779.838l-1.483 1.664h3.657z" fill="#E08F40"/></g><g filter="url(#filter2_d_1170_120)"><circle cx="428" cy="399" r="10" fill="#fff"/><path d="M426.869 398.002h.902c.29 0 .528-.049.715-.147a.96.96 0 00.416-.421c.094-.184.141-.397.141-.639 0-.219-.043-.412-.129-.58a.875.875 0 00-.381-.399c-.172-.097-.388-.146-.65-.146-.207 0-.399.041-.574.123a1.043 1.043 0 00-.422.346.901.901 0 00-.158.539h-1.694c0-.469.125-.877.375-1.225a2.543 2.543 0 011.02-.814 3.317 3.317 0 011.406-.293c.578 0 1.084.093 1.518.281.433.184.771.455 1.013.814.242.36.363.805.363 1.336 0 .27-.062.532-.187.785a2.21 2.21 0 01-.539.68 2.69 2.69 0 01-.844.481 3.352 3.352 0 01-1.119.175h-1.172v-.896zm0 1.283v-.873h1.172c.465 0 .873.053 1.225.158.351.106.646.258.884.457.239.196.418.428.539.698.122.265.182.56.182.884 0 .399-.076.754-.228 1.067-.153.308-.368.57-.645.785a2.93 2.93 0 01-.961.492 4.202 4.202 0 01-2.262.018 3.175 3.175 0 01-.937-.451 2.342 2.342 0 01-.668-.762c-.164-.309-.246-.674-.246-1.096h1.693c0 .219.055.414.164.586.11.172.26.307.451.404.196.098.413.147.651.147.269 0 .5-.049.691-.147.196-.101.344-.242.446-.422a1.26 1.26 0 00.158-.638c0-.313-.057-.563-.17-.75a1.006 1.006 0 00-.487-.422c-.21-.09-.46-.135-.75-.135h-.902z" fill="#E08F40"/></g><g filter="url(#filter3_d_1170_120)"><circle cx="315" cy="410" r="10" fill="#fff"/><path d="M313.729 410.115l-1.348-.322.486-4.324h4.793v1.365h-3.404l-.211 1.893a2.66 2.66 0 01.516-.211c.23-.078.488-.118.773-.118.414 0 .781.065 1.102.194.32.129.591.316.814.562.227.246.398.547.516.903.117.355.175.757.175 1.207 0 .379-.058.74-.175 1.084-.118.34-.295.644-.534.914a2.503 2.503 0 01-.896.627c-.359.152-.785.228-1.277.228-.368 0-.723-.055-1.067-.164a2.92 2.92 0 01-.92-.486 2.519 2.519 0 01-.65-.779 2.37 2.37 0 01-.252-1.055h1.676c.023.242.086.451.187.627.106.172.244.304.416.398.172.094.373.141.604.141.215 0 .398-.041.551-.123.152-.082.275-.196.369-.34.093-.148.162-.32.205-.516a2.8 2.8 0 00.07-.644c0-.231-.027-.44-.082-.627a1.35 1.35 0 00-.252-.487 1.118 1.118 0 00-.434-.316 1.513 1.513 0 00-.603-.111c-.313 0-.555.049-.727.146a1.748 1.748 0 00-.421.334z" fill="#E08F40"/></g><g filter="url(#filter4_d_1170_120)"><circle cx="267.281" cy="440.225" r="10" fill="#fff"/><path d="M268.775 435.605h.246v1.348h-.099a3.34 3.34 0 00-1.19.199 2.454 2.454 0 00-.884.569 2.46 2.46 0 00-.551.879 3.353 3.353 0 00-.188 1.154v1.418c0 .305.03.574.088.808.063.231.151.424.264.581.117.152.254.267.41.345.156.074.332.112.527.112a1.1 1.1 0 00.885-.446c.11-.144.192-.312.246-.504.059-.195.088-.408.088-.638 0-.231-.029-.444-.088-.639a1.429 1.429 0 00-.246-.504 1.13 1.13 0 00-.398-.334 1.164 1.164 0 00-.528-.117c-.265 0-.5.062-.703.187a1.355 1.355 0 00-.468.469 1.26 1.26 0 00-.182.604l-.51-.328c.012-.301.074-.586.188-.856.117-.269.277-.508.48-.715.207-.211.455-.375.744-.492.289-.121.615-.182.979-.182.398 0 .748.077 1.049.229.304.152.558.361.761.627.203.266.356.572.457.92.102.347.153.719.153 1.113a3.2 3.2 0 01-.205 1.154 2.716 2.716 0 01-.58.932c-.25.266-.551.473-.903.621a3.002 3.002 0 01-1.183.223c-.454 0-.866-.082-1.237-.246a2.829 2.829 0 01-.949-.703 3.175 3.175 0 01-.615-1.073 4.192 4.192 0 01-.211-1.359v-.656c0-.688.099-1.317.299-1.887.203-.574.494-1.07.873-1.488a3.89 3.89 0 011.371-.979c.535-.23 1.139-.346 1.81-.346z" fill="#E08F40"/></g><g filter="url(#filter5_d_1170_120)"><circle cx="224.281" cy="466.225" r="10" fill="#fff"/><path d="M227.217 461.693v.909l-3.299 7.623h-1.781l3.299-7.213h-4.248v-1.319h6.029z" fill="#E08F40"/></g><g filter="url(#filter6_d_1170_120)"><circle cx="240.281" cy="438.225" r="10" fill="#fff"/><path d="M238.03 433.676v8.549h-1.688v-6.604l-2.027.645v-1.33l3.533-1.26h.182zm8.639 3.533v1.477c0 .64-.068 1.193-.205 1.658-.136.461-.334.84-.592 1.136a2.33 2.33 0 01-.908.651 3.14 3.14 0 01-1.172.211c-.343 0-.664-.043-.961-.129a2.433 2.433 0 01-.802-.416 2.646 2.646 0 01-.61-.709 3.612 3.612 0 01-.386-1.031 6.266 6.266 0 01-.135-1.371v-1.477c0-.641.068-1.189.205-1.647.141-.46.338-.837.592-1.13a2.33 2.33 0 01.914-.645 3.12 3.12 0 011.172-.211c.343 0 .662.045.955.135.297.086.564.221.803.404.238.184.441.42.609.709.168.285.297.627.387 1.026.089.394.134.847.134 1.359zm-1.693 1.699v-1.928a5.44 5.44 0 00-.053-.808 2.374 2.374 0 00-.146-.586 1.25 1.25 0 00-.246-.398.896.896 0 00-.334-.223 1.175 1.175 0 00-.416-.07c-.192 0-.362.037-.51.111a.938.938 0 00-.369.357c-.102.16-.18.375-.235.645-.05.265-.076.59-.076.972v1.928c0 .309.016.58.047.815.035.234.086.435.152.603.071.164.153.299.247.404a.889.889 0 00.334.223c.128.047.269.07.421.07.188 0 .354-.037.498-.111a.97.97 0 00.375-.363 1.89 1.89 0 00.235-.656c.051-.27.076-.598.076-.985z" fill="#E08F40"/></g><g filter="url(#filter7_d_1170_120)"><circle cx="274.281" cy="416.225" r="10" fill="#fff"/><path d="M272.03 411.676v8.549h-1.688v-6.604l-2.027.645v-1.33l3.533-1.26h.182zm7.01 0v8.549h-1.687v-6.604l-2.027.645v-1.33l3.533-1.26h.181z" fill="#E08F40"/></g><g filter="url(#filter8_d_1170_120)"><circle cx="350.281" cy="367.225" r="10" fill="#fff"/><path d="M348.03 362.676v8.549h-1.688v-6.604l-2.027.645v-1.33l3.533-1.26h.182zm8.733 7.23v1.319h-5.836V370.1l2.76-2.959c.277-.309.496-.58.656-.815.16-.238.276-.451.346-.638.074-.192.111-.374.111-.545 0-.258-.043-.479-.129-.663a.959.959 0 00-.381-.433 1.132 1.132 0 00-.609-.152c-.258 0-.48.062-.668.187a1.2 1.2 0 00-.422.522c-.094.222-.14.474-.14.755h-1.694c0-.507.121-.972.364-1.394a2.664 2.664 0 011.025-1.014c.441-.254.965-.381 1.57-.381.598 0 1.102.098 1.512.293.414.192.727.469.937.832.215.36.323.789.323 1.289 0 .282-.045.557-.135.827-.09.265-.219.531-.387.796a6.38 6.38 0 01-.597.797c-.235.27-.495.549-.78.838l-1.482 1.664h3.656z" fill="#E08F40"/></g><g filter="url(#filter9_d_1170_120)"><circle cx="378.281" cy="349.225" r="10" fill="#fff"/><path d="M376.03 344.676v8.549h-1.688v-6.604l-2.027.645v-1.33l3.533-1.26h.182zm4.626 3.551h.902c.289 0 .527-.049.715-.147a.963.963 0 00.416-.422c.094-.183.141-.396.141-.638 0-.219-.043-.413-.129-.581a.878.878 0 00-.381-.398c-.172-.098-.389-.146-.651-.146-.207 0-.398.041-.574.123a1.056 1.056 0 00-.422.345.91.91 0 00-.158.539h-1.693c0-.468.125-.877.375-1.224a2.55 2.55 0 011.019-.815 3.34 3.34 0 011.406-.293c.579 0 1.084.094 1.518.282.434.183.772.455 1.014.814.242.359.363.805.363 1.336 0 .269-.062.531-.187.785-.125.25-.305.477-.54.68a2.67 2.67 0 01-.843.48 3.352 3.352 0 01-1.119.176h-1.172v-.896zm0 1.283v-.873h1.172c.464 0 .873.052 1.224.158.352.105.647.258.885.457.238.195.418.428.539.697.121.266.182.561.182.885 0 .398-.077.754-.229 1.066a2.232 2.232 0 01-.644.786 2.98 2.98 0 01-.961.492 4.214 4.214 0 01-2.262.017 3.156 3.156 0 01-.938-.451 2.322 2.322 0 01-.668-.762c-.164-.308-.246-.673-.246-1.095h1.694c0 .218.054.414.164.586.109.172.26.306.451.404.195.098.412.146.65.146.27 0 .5-.048.692-.146.195-.102.344-.242.445-.422.106-.184.158-.396.158-.639 0-.312-.056-.562-.17-.75a1.002 1.002 0 00-.486-.421 1.903 1.903 0 00-.75-.135h-.902z" fill="#E08F40"/></g><g filter="url(#filter10_d_1170_120)"><circle cx="389.281" cy="264.225" r="10" fill="#fff"/><path d="M387.03 259.676v8.549h-1.688v-6.604l-2.027.645v-1.33l3.533-1.26h.182zm8.874 5.361v1.324h-6.147l-.082-1.025 3.557-5.643h1.342l-1.453 2.432-1.77 2.912h4.553zm-.967-5.344v8.532h-1.688v-8.532h1.688z" fill="#E08F40"/></g><g filter="url(#filter11_d_1170_120)"><circle cx="360.281" cy="215.225" r="10" fill="#fff"/><path d="M358.03 210.676v8.549h-1.688v-6.604l-2.027.645v-1.33l3.533-1.26h.182zm4.485 4.664l-1.348-.322.487-4.325h4.793v1.366h-3.405l-.211 1.892c.114-.066.286-.137.516-.211.231-.078.488-.117.774-.117.414 0 .781.065 1.101.193.32.129.592.317.815.563.226.246.398.547.515.902.117.356.176.758.176 1.207 0 .379-.059.741-.176 1.084-.117.34-.295.645-.533.914a2.474 2.474 0 01-.897.627c-.359.153-.785.229-1.277.229-.367 0-.723-.055-1.066-.164a2.933 2.933 0 01-.92-.487 2.486 2.486 0 01-.651-.779 2.363 2.363 0 01-.252-1.055h1.676c.024.243.086.452.188.627.105.172.244.305.416.399.172.094.373.14.603.14.215 0 .399-.041.551-.123.152-.082.275-.195.369-.339.094-.149.162-.321.205-.516.047-.199.071-.414.071-.645 0-.23-.028-.439-.082-.627a1.354 1.354 0 00-.252-.486 1.115 1.115 0 00-.434-.316 1.499 1.499 0 00-.603-.112c-.313 0-.555.049-.727.147a1.754 1.754 0 00-.422.334z" fill="#E08F40"/></g><g filter="url(#filter12_d_1170_120)"><circle cx="469.281" cy="140.225" r="10" fill="#fff"/><path d="M467.03 135.676v8.549h-1.688v-6.604l-2.027.645v-1.33l3.533-1.26h.182zm7.251-.071h.246v1.348h-.1a3.33 3.33 0 00-1.189.199 2.45 2.45 0 00-.885.569 2.475 2.475 0 00-.551.879 3.354 3.354 0 00-.187 1.154v1.418c0 .305.029.574.088.808.062.231.15.424.263.581.117.152.254.267.41.345.157.074.332.112.528.112.183 0 .349-.039.498-.118.152-.078.281-.187.387-.328.109-.144.191-.312.246-.504.058-.195.087-.408.087-.638 0-.231-.029-.444-.087-.639a1.464 1.464 0 00-.246-.504 1.141 1.141 0 00-.399-.334 1.163 1.163 0 00-.527-.117c-.266 0-.5.062-.703.187a1.35 1.35 0 00-.469.469 1.27 1.27 0 00-.182.604l-.51-.328c.012-.301.075-.586.188-.856.117-.269.277-.508.48-.715.207-.211.455-.375.745-.492a2.51 2.51 0 01.978-.182c.399 0 .748.077 1.049.229.305.152.558.361.762.627.203.266.355.572.457.92.101.347.152.719.152 1.113 0 .414-.068.799-.205 1.154a2.7 2.7 0 01-.58.932c-.25.266-.551.473-.903.621a3.002 3.002 0 01-1.183.223c-.453 0-.865-.082-1.236-.246a2.823 2.823 0 01-.95-.703 3.209 3.209 0 01-.615-1.073 4.192 4.192 0 01-.211-1.359v-.656c0-.688.1-1.317.299-1.887.203-.574.494-1.07.873-1.488a3.89 3.89 0 011.371-.979c.535-.23 1.139-.346 1.811-.346z" fill="#E08F40"/></g><g filter="url(#filter13_d_1170_120)"><circle cx="532.281" cy="97.225" r="10" fill="#fff"/><path d="M530.03 92.676v8.549h-1.688v-6.604l-2.027.645v-1.33l3.533-1.26h.182zm8.692.017v.909l-3.299 7.623h-1.781l3.299-7.213h-4.248v-1.319h6.029z" fill="#E08F40"/></g><g filter="url(#filter14_d_1170_120)"><circle cx="587.281" cy="143.225" r="10" fill="#fff"/><path d="M585.03 138.676v8.549h-1.688v-6.604l-2.027.645v-1.33l3.533-1.26h.182zm8.645 6.211c0 .535-.125.986-.375 1.353-.25.364-.594.639-1.031.826a3.75 3.75 0 01-1.477.276 3.79 3.79 0 01-1.482-.276 2.362 2.362 0 01-1.037-.826c-.254-.367-.381-.818-.381-1.353 0-.36.072-.684.217-.973.144-.293.346-.543.603-.75a2.75 2.75 0 01.92-.48 3.71 3.71 0 011.149-.17c.554 0 1.05.097 1.488.293.437.195.781.47 1.031.826.25.355.375.773.375 1.254zm-1.699-.112a1.4 1.4 0 00-.152-.673 1.035 1.035 0 00-.416-.44 1.26 1.26 0 00-.627-.152c-.239 0-.448.051-.627.152a1.06 1.06 0 00-.422.44 1.435 1.435 0 00-.147.673c0 .258.049.481.147.668.101.188.242.332.422.434.183.098.396.146.638.146.243 0 .452-.048.627-.146.18-.102.317-.246.411-.434.097-.187.146-.41.146-.668zm1.518-3.82c0 .434-.116.818-.346 1.154a2.314 2.314 0 01-.961.78c-.406.187-.871.281-1.395.281-.527 0-.996-.094-1.406-.281a2.314 2.314 0 01-.961-.78 1.993 1.993 0 01-.345-1.154c0-.516.115-.949.345-1.301a2.22 2.22 0 01.961-.808c.41-.184.875-.276 1.395-.276.527 0 .994.092 1.4.276.41.183.731.453.961.808.234.352.352.785.352 1.301zm-1.688.076c0-.23-.041-.429-.123-.597a.92.92 0 00-.352-.399 1.008 1.008 0 00-.55-.14c-.211 0-.393.044-.545.134a.894.894 0 00-.346.393 1.438 1.438 0 00-.117.609c0 .231.039.434.117.61a.962.962 0 00.352.404.994.994 0 00.55.146.966.966 0 00.545-.146.922.922 0 00.346-.404c.082-.176.123-.379.123-.61z" fill="#E08F40"/></g><g filter="url(#filter15_d_1170_120)"><circle cx="655.281" cy="250.225" r="10" fill="#fff"/><path d="M653.03 245.676v8.549h-1.688v-6.604l-2.027.645v-1.33l3.533-1.26h.182zm4.092 7.265h.112c.469 0 .871-.056 1.207-.17.34-.117.619-.285.838-.503.218-.219.381-.487.486-.803.106-.32.158-.684.158-1.09v-1.617c0-.309-.031-.58-.093-.815a1.642 1.642 0 00-.258-.58 1.107 1.107 0 00-.387-.351.997.997 0 00-.48-.117.895.895 0 00-.499.14c-.144.09-.267.213-.369.369a2.025 2.025 0 00-.228.539c-.051.2-.076.409-.076.627 0 .219.025.428.076.627.051.196.127.369.228.522.102.148.229.267.381.357.153.086.332.129.539.129.199 0 .377-.037.533-.111a1.34 1.34 0 00.663-.721c.062-.152.093-.307.093-.463l.557.305c0 .273-.059.543-.176.808a2.485 2.485 0 01-1.213 1.243 2.031 2.031 0 01-.879.193c-.398 0-.752-.072-1.06-.217a2.304 2.304 0 01-.785-.609 2.78 2.78 0 01-.481-.914 3.766 3.766 0 01-.164-1.131c0-.414.067-.803.199-1.166a3 3 0 01.58-.961c.254-.277.557-.494.909-.65.355-.161.75-.241 1.183-.241.434 0 .828.084 1.184.252.355.168.66.407.914.715.254.305.449.67.586 1.096.14.426.211.898.211 1.418v.586a6.28 6.28 0 01-.182 1.547 4.51 4.51 0 01-.533 1.295c-.234.382-.527.71-.879.984a3.782 3.782 0 01-1.213.627 5.172 5.172 0 01-1.547.217h-.135v-1.366z" fill="#E08F40"/></g><g filter="url(#filter16_d_1170_120)"><circle cx="708.281" cy="333.225" r="10" fill="#fff"/><path d="M707.753 335.906v1.319h-5.836V336.1l2.759-2.959c.278-.309.496-.58.657-.815.16-.238.275-.451.345-.638a1.556 1.556 0 00-.017-1.208.959.959 0 00-.381-.433 1.134 1.134 0 00-.61-.152c-.257 0-.48.062-.667.187a1.185 1.185 0 00-.422.522 1.921 1.921 0 00-.141.755h-1.693c0-.507.121-.972.363-1.394a2.664 2.664 0 011.025-1.014c.442-.254.965-.381 1.571-.381.597 0 1.101.098 1.511.293.414.192.727.469.938.832.215.36.322.789.322 1.289 0 .282-.045.557-.135.827a3.68 3.68 0 01-.386.796 6.391 6.391 0 01-.598.797c-.234.27-.494.549-.779.838l-1.483 1.664h3.657zm6.916-3.697v1.477c0 .64-.068 1.193-.205 1.658-.136.461-.334.84-.592 1.136a2.33 2.33 0 01-.908.651 3.14 3.14 0 01-1.172.211c-.343 0-.664-.043-.961-.129a2.433 2.433 0 01-.802-.416 2.646 2.646 0 01-.61-.709 3.612 3.612 0 01-.386-1.031 6.266 6.266 0 01-.135-1.371v-1.477c0-.641.068-1.189.205-1.647.141-.46.338-.837.592-1.13a2.33 2.33 0 01.914-.645 3.12 3.12 0 011.172-.211c.343 0 .662.045.955.135.297.086.564.221.803.404.238.184.441.42.609.709.168.285.297.627.387 1.026.089.394.134.847.134 1.359zm-1.693 1.699v-1.928a5.44 5.44 0 00-.053-.808 2.374 2.374 0 00-.146-.586 1.25 1.25 0 00-.246-.398.896.896 0 00-.334-.223 1.175 1.175 0 00-.416-.07c-.192 0-.362.037-.51.111a.938.938 0 00-.369.357c-.102.16-.18.375-.235.645-.05.265-.076.59-.076.972v1.928c0 .309.016.58.047.815.035.234.086.435.152.603.071.164.153.299.247.404a.889.889 0 00.334.223c.128.047.269.07.421.07.188 0 .354-.037.498-.111a.97.97 0 00.375-.363 1.89 1.89 0 00.235-.656c.051-.27.076-.598.076-.985z" fill="#E08F40"/></g><g filter="url(#filter17_d_1170_120)"><circle cx="183.281" cy="493.225" r="10" fill="#fff"/><path d="M186.17 494.887c0 .535-.125.986-.375 1.353-.25.364-.594.639-1.031.826a3.75 3.75 0 01-1.477.276 3.787 3.787 0 01-1.482-.276 2.356 2.356 0 01-1.037-.826c-.254-.367-.381-.818-.381-1.353 0-.36.072-.684.217-.973a2.19 2.19 0 01.603-.75c.262-.211.568-.371.92-.48.352-.114.734-.17 1.148-.17.555 0 1.051.097 1.489.293.437.195.781.47 1.031.826.25.355.375.773.375 1.254zm-1.699-.112c0-.261-.051-.486-.153-.673a1.023 1.023 0 00-.416-.44 1.255 1.255 0 00-.627-.152 1.26 1.26 0 00-.627.152c-.179.102-.32.248-.421.44a1.435 1.435 0 00-.147.673c0 .258.049.481.147.668.101.188.242.332.421.434.184.098.397.146.639.146s.451-.048.627-.146a1 1 0 00.41-.434c.098-.187.147-.41.147-.668zm1.517-3.82c0 .434-.115.818-.345 1.154a2.314 2.314 0 01-.961.78 3.303 3.303 0 01-1.395.281c-.527 0-.996-.094-1.406-.281a2.307 2.307 0 01-.961-.78 1.986 1.986 0 01-.346-1.154c0-.516.115-.949.346-1.301.234-.355.555-.625.961-.808.41-.184.875-.276 1.394-.276.528 0 .995.092 1.401.276.41.183.73.453.961.808.234.352.351.785.351 1.301zm-1.687.076c0-.23-.041-.429-.123-.597a.92.92 0 00-.352-.399 1.009 1.009 0 00-.551-.14c-.211 0-.392.044-.545.134a.898.898 0 00-.345.393 1.438 1.438 0 00-.117.609c0 .231.039.434.117.61a.967.967 0 00.351.404.998.998 0 00.551.146.966.966 0 00.545-.146.929.929 0 00.346-.404c.082-.176.123-.379.123-.61z" fill="#E08F40"/></g><g filter="url(#filter18_d_1170_120)"><circle cx="157" cy="494" r="10" fill="#fff"/><path d="M155.336 496.717h.111c.469 0 .871-.057 1.207-.17.34-.117.619-.285.838-.504a2.02 2.02 0 00.487-.803c.105-.32.158-.683.158-1.09v-1.617c0-.308-.032-.58-.094-.814a1.626 1.626 0 00-.258-.58 1.084 1.084 0 00-.387-.352.991.991 0 00-.48-.117.89.89 0 00-.498.141 1.16 1.16 0 00-.369.369 1.981 1.981 0 00-.229.539 2.516 2.516 0 00-.076.627c0 .218.025.427.076.627.051.195.127.369.229.521.101.149.228.268.381.358.152.086.332.128.539.128.199 0 .377-.037.533-.111.16-.078.295-.18.404-.305.113-.125.199-.263.258-.416.063-.152.094-.306.094-.462l.556.304c0 .274-.058.543-.175.809a2.503 2.503 0 01-1.213 1.242 2.037 2.037 0 01-.879.193c-.399 0-.752-.072-1.061-.216a2.328 2.328 0 01-.785-.61 2.75 2.75 0 01-.48-.914 3.73 3.73 0 01-.164-1.131c0-.414.066-.802.199-1.166.137-.363.33-.683.58-.961.254-.277.557-.494.908-.65.356-.16.75-.24 1.184-.24.433 0 .828.084 1.183.252.356.168.66.406.914.714.254.305.45.67.586 1.096.141.426.211.899.211 1.418v.586c0 .555-.06 1.07-.181 1.547a4.5 4.5 0 01-.534 1.295 3.628 3.628 0 01-.879.984 3.728 3.728 0 01-1.212.627 5.145 5.145 0 01-1.547.217h-.135v-1.365z" fill="#E08F40"/></g><g filter="url(#filter19_d_1170_120)"><circle cx="408" cy="359" r="10" fill="#fff"/><path d="M411.117 359.812v1.325h-6.146l-.082-1.026 3.556-5.642h1.342l-1.453 2.431-1.77 2.912h4.553zm-.967-5.343V363h-1.687v-8.531h1.687z" fill="#E08F40"/></g><defs><linearGradient id="paint0_linear_1170_120" x1="235.781" y1="458.725" x2="235.781" y2="490.725" gradientUnits="userSpaceOnUse"><stop stop-color="#FF8F22" stop-opacity=".55"/><stop offset="1" stop-color="#FF942D" stop-opacity=".19"/></linearGradient><linearGradient id="paint1_linear_1170_120" x1="259.281" y1="376.225" x2="259.281" y2="419.225" gradientUnits="userSpaceOnUse"><stop stop-color="#FF8F22" stop-opacity=".55"/><stop offset="1" stop-color="#FF942D" stop-opacity=".19"/></linearGradient><linearGradient id="paint2_linear_1170_120" x1="364.281" y1="308.225" x2="364.281" y2="348.725" gradientUnits="userSpaceOnUse"><stop stop-color="#FF8F22" stop-opacity=".55"/><stop offset="1" stop-color="#FF942D" stop-opacity=".19"/></linearGradient><linearGradient id="paint3_linear_1170_120" x1="416.445" y1="183.246" x2="416.445" y2="288.377" gradientUnits="userSpaceOnUse"><stop stop-color="#FF8F22" stop-opacity=".55"/><stop offset="1" stop-color="#FF942D" stop-opacity=".19"/></linearGradient><linearGradient id="paint4_linear_1170_120" x1="480" y1="144.5" x2="478" y2="177.5" gradientUnits="userSpaceOnUse"><stop stop-color="#FF8F22" stop-opacity=".55"/><stop offset="1" stop-color="#FF942D" stop-opacity=".19"/></linearGradient><linearGradient id="paint5_linear_1170_120" x1="502.781" y1="22.225" x2="502.781" y2="98.225" gradientUnits="userSpaceOnUse"><stop stop-color="#FF8F22" stop-opacity=".55"/><stop offset="1" stop-color="#FF942D" stop-opacity=".19"/></linearGradient><linearGradient id="paint6_linear_1170_120" x1="533.685" y1="104.734" x2="530.975" y2="151.163" gradientUnits="userSpaceOnUse"><stop stop-color="#FF8F22" stop-opacity=".55"/><stop offset="1" stop-color="#FF942D" stop-opacity=".19"/></linearGradient><linearGradient id="paint7_linear_1170_120" x1="338.781" y1="335.725" x2="338.781" y2="366.225" gradientUnits="userSpaceOnUse"><stop stop-color="#FF8F22" stop-opacity=".55"/><stop offset="1" stop-color="#FF942D" stop-opacity=".19"/></linearGradient><linearGradient id="paint8_linear_1170_120" x1="231.031" y1="412.225" x2="231.031" y2="439.725" gradientUnits="userSpaceOnUse"><stop stop-color="#FF8F22" stop-opacity=".55"/><stop offset="1" stop-color="#FF942D" stop-opacity=".19"/></linearGradient><linearGradient id="paint9_linear_1170_120" x1="147.632" y1="404.713" x2="144.418" y2="453.272" gradientUnits="userSpaceOnUse"><stop stop-color="#FF8F22" stop-opacity=".55"/><stop offset="1" stop-color="#FF942D" stop-opacity=".19"/></linearGradient><linearGradient id="paint10_linear_1170_120" x1="147.632" y1="404.713" x2="144.418" y2="453.272" gradientUnits="userSpaceOnUse"><stop stop-color="#FF8F22" stop-opacity=".55"/><stop offset="1" stop-color="#FF942D" stop-opacity=".19"/></linearGradient><linearGradient id="paint11_linear_1170_120" x1="271.781" y1="428.725" x2="271.781" y2="473.725" gradientUnits="userSpaceOnUse"><stop stop-color="#FF8F22" stop-opacity=".55"/><stop offset="1" stop-color="#FF942D" stop-opacity=".19"/></linearGradient><linearGradient id="paint12_linear_1170_120" x1="326.781" y1="401.725" x2="326.781" y2="476.225" gradientUnits="userSpaceOnUse"><stop stop-color="#FF8F22" stop-opacity=".55"/><stop offset="1" stop-color="#FF942D" stop-opacity=".19"/></linearGradient><linearGradient id="paint13_linear_1170_120" x1="75.531" y1="410.225" x2="75.531" y2="541.225" gradientUnits="userSpaceOnUse"><stop stop-color="#FF8F22" stop-opacity=".55"/><stop offset="1" stop-color="#FF942D" stop-opacity=".19"/></linearGradient><linearGradient id="paint14_linear_1170_120" x1="26.548" y1="368.613" x2="22.565" y2="418.889" gradientUnits="userSpaceOnUse"><stop stop-color="#FF8F22" stop-opacity=".55"/><stop offset="1" stop-color="#FF942D" stop-opacity=".19"/></linearGradient><linearGradient id="paint15_linear_1170_120" x1="511.622" y1="408.376" x2="508.703" y2="448.758" gradientUnits="userSpaceOnUse"><stop stop-color="#FF8F22" stop-opacity=".55"/><stop offset="1" stop-color="#FF942D" stop-opacity=".19"/></linearGradient><linearGradient id="paint16_linear_1170_120" x1="448" y1="375" x2="448" y2="405" gradientUnits="userSpaceOnUse"><stop stop-color="#FF8F22" stop-opacity=".55"/><stop offset="1" stop-color="#FF942D" stop-opacity=".19"/></linearGradient><linearGradient id="paint17_linear_1170_120" x1="468" y1="375" x2="1036.5" y2="1" gradientUnits="userSpaceOnUse"><stop stop-color="#FF8F22" stop-opacity=".55"/><stop offset=".857" stop-color="#FF9A2D" stop-opacity=".19"/><stop offset=".995" stop-color="#FF9A2D" stop-opacity="0"/></linearGradient><linearGradient id="paint18_linear_1170_120" x1="536.5" y1="448.5" x2="706.5" y2="330" gradientUnits="userSpaceOnUse"><stop offset=".37" stop-color="#FF8F22" stop-opacity=".55"/><stop offset="1" stop-color="#FF942D" stop-opacity=".19"/></linearGradient><linearGradient id="paint19_linear_1170_120" x1="498.5" y1="5.5" x2="870.5" y2="587" gradientUnits="userSpaceOnUse"><stop stop-color="#FF8F22" stop-opacity="0"/><stop offset=".09" stop-color="#FF8F22" stop-opacity=".6"/><stop offset=".954" stop-color="#FF9731" stop-opacity=".6"/><stop offset="1" stop-color="#FF942D" stop-opacity="0"/></linearGradient><linearGradient id="paint20_linear_1170_120" x1="485" y1="128" x2="79.5" y2="395" gradientUnits="userSpaceOnUse"><stop offset=".568" stop-color="#FF8F22" stop-opacity=".55"/><stop offset="1" stop-color="#FF942D" stop-opacity=".06"/></linearGradient><linearGradient id="paint21_linear_1170_120" x1="35.314" y1="483.654" x2="32.078" y2="529.65" gradientUnits="userSpaceOnUse"><stop stop-color="#FF8F22" stop-opacity=".55"/><stop offset="1" stop-color="#FF942D" stop-opacity=".19"/></linearGradient><linearGradient id="paint22_linear_1170_120" x1="404.794" y1="376" x2="404.794" y2="680.5" gradientUnits="userSpaceOnUse"><stop stop-color="#FF8F22" stop-opacity=".55"/><stop offset="1" stop-color="#FF942D" stop-opacity=".19"/></linearGradient><linearGradient id="paint23_linear_1170_120" x1="300.405" y1="552.873" x2="300.405" y2="634.82" gradientUnits="userSpaceOnUse"><stop stop-color="#FF8F22" stop-opacity=".55"/><stop offset="1" stop-color="#FF942D" stop-opacity=".19"/></linearGradient><linearGradient id="paint24_linear_1170_120" x1="300.405" y1="552.873" x2="300.405" y2="634.82" gradientUnits="userSpaceOnUse"><stop stop-color="#FF8F22" stop-opacity=".55"/><stop offset="1" stop-color="#FF942D" stop-opacity=".19"/></linearGradient><linearGradient id="paint25_linear_1170_120" x1="236.475" y1="555.197" x2="236.475" y2="664.46" gradientUnits="userSpaceOnUse"><stop stop-color="#FF8F22" stop-opacity=".55"/><stop offset="1" stop-color="#FF942D" stop-opacity=".19"/></linearGradient><linearGradient id="paint26_linear_1170_120" x1="297.856" y1="700.813" x2="294.748" y2="747.559" gradientUnits="userSpaceOnUse"><stop stop-color="#FF8F22" stop-opacity=".55"/><stop offset="1" stop-color="#FF942D" stop-opacity=".19"/></linearGradient><linearGradient id="paint27_linear_1170_120" x1="358.134" y1="672.437" x2="356.772" y2="697.111" gradientUnits="userSpaceOnUse"><stop stop-color="#FF8F22" stop-opacity=".55"/><stop offset="1" stop-color="#FF942D" stop-opacity=".19"/></linearGradient><linearGradient id="paint28_linear_1170_120" x1="352.7" y1="727.817" x2="351.056" y2="747.333" gradientUnits="userSpaceOnUse"><stop stop-color="#FF8F22" stop-opacity=".55"/><stop offset="1" stop-color="#FF942D" stop-opacity=".19"/></linearGradient><filter id="filter0_d_1170_120" x="509" y="413" width="58" height="58" filterUnits="userSpaceOnUse" color-interpolation-filters="sRGB"><feFlood flood-opacity="0" result="BackgroundImageFix"/><feColorMatrix in="SourceAlpha" values="0 0 0 0 0 0 0 0 0 0 0 0 0 0 0 0 0 0 127 0" result="hardAlpha"/><feOffset/><feGaussianBlur stdDeviation="7.5"/><feComposite in2="hardAlpha" operator="out"/><feColorMatrix values="0 0 0 0 0.9125 0 0 0 0 0.438 0 0 0 0 0 0 0 0 0.9 0"/><feBlend in2="BackgroundImageFix" result="effect1_dropShadow_1170_120"/><feBlend in="SourceGraphic" in2="effect1_dropShadow_1170_120" result="shape"/></filter><filter id="filter1_d_1170_120" x="443" y="458" width="50" height="50" filterUnits="userSpaceOnUse" color-interpolation-filters="sRGB"><feFlood flood-opacity="0" result="BackgroundImageFix"/><feColorMatrix in="SourceAlpha" values="0 0 0 0 0 0 0 0 0 0 0 0 0 0 0 0 0 0 127 0" result="hardAlpha"/><feOffset/><feGaussianBlur stdDeviation="7.5"/><feComposite in2="hardAlpha" operator="out"/><feColorMatrix values="0 0 0 0 0.9125 0 0 0 0 0.438 0 0 0 0 0 0 0 0 0.9 0"/><feBlend in2="BackgroundImageFix" result="effect1_dropShadow_1170_120"/><feBlend in="SourceGraphic" in2="effect1_dropShadow_1170_120" result="shape"/></filter><filter id="filter2_d_1170_120" x="403" y="374" width="50" height="50" filterUnits="userSpaceOnUse" color-interpolation-filters="sRGB"><feFlood flood-opacity="0" result="BackgroundImageFix"/><feColorMatrix in="SourceAlpha" values="0 0 0 0 0 0 0 0 0 0 0 0 0 0 0 0 0 0 127 0" result="hardAlpha"/><feOffset/><feGaussianBlur stdDeviation="7.5"/><feComposite in2="hardAlpha" operator="out"/><feColorMatrix values="0 0 0 0 0.9125 0 0 0 0 0.438 0 0 0 0 0 0 0 0 0.9 0"/><feBlend in2="BackgroundImageFix" result="effect1_dropShadow_1170_120"/><feBlend in="SourceGraphic" in2="effect1_dropShadow_1170_120" result="shape"/></filter><filter id="filter3_d_1170_120" x="290" y="385" width="50" height="50" filterUnits="userSpaceOnUse" color-interpolation-filters="sRGB"><feFlood flood-opacity="0" result="BackgroundImageFix"/><feColorMatrix in="SourceAlpha" values="0 0 0 0 0 0 0 0 0 0 0 0 0 0 0 0 0 0 127 0" result="hardAlpha"/><feOffset/><feGaussianBlur stdDeviation="7.5"/><feComposite in2="hardAlpha" operator="out"/><feColorMatrix values="0 0 0 0 0.9125 0 0 0 0 0.438 0 0 0 0 0 0 0 0 0.9 0"/><feBlend in2="BackgroundImageFix" result="effect1_dropShadow_1170_120"/><feBlend in="SourceGraphic" in2="effect1_dropShadow_1170_120" result="shape"/></filter><filter id="filter4_d_1170_120" x="242.281" y="415.225" width="50" height="50" filterUnits="userSpaceOnUse" color-interpolation-filters="sRGB"><feFlood flood-opacity="0" result="BackgroundImageFix"/><feColorMatrix in="SourceAlpha" values="0 0 0 0 0 0 0 0 0 0 0 0 0 0 0 0 0 0 127 0" result="hardAlpha"/><feOffset/><feGaussianBlur stdDeviation="7.5"/><feComposite in2="hardAlpha" operator="out"/><feColorMatrix values="0 0 0 0 0.9125 0 0 0 0 0.438 0 0 0 0 0 0 0 0 0.9 0"/><feBlend in2="BackgroundImageFix" result="effect1_dropShadow_1170_120"/><feBlend in="SourceGraphic" in2="effect1_dropShadow_1170_120" result="shape"/></filter><filter id="filter5_d_1170_120" x="199.281" y="441.225" width="50" height="50" filterUnits="userSpaceOnUse" color-interpolation-filters="sRGB"><feFlood flood-opacity="0" result="BackgroundImageFix"/><feColorMatrix in="SourceAlpha" values="0 0 0 0 0 0 0 0 0 0 0 0 0 0 0 0 0 0 127 0" result="hardAlpha"/><feOffset/><feGaussianBlur stdDeviation="7.5"/><feComposite in2="hardAlpha" operator="out"/><feColorMatrix values="0 0 0 0 0.9125 0 0 0 0 0.438 0 0 0 0 0 0 0 0 0.9 0"/><feBlend in2="BackgroundImageFix" result="effect1_dropShadow_1170_120"/><feBlend in="SourceGraphic" in2="effect1_dropShadow_1170_120" result="shape"/></filter><filter id="filter6_d_1170_120" x="215.281" y="413.225" width="50" height="50" filterUnits="userSpaceOnUse" color-interpolation-filters="sRGB"><feFlood flood-opacity="0" result="BackgroundImageFix"/><feColorMatrix in="SourceAlpha" values="0 0 0 0 0 0 0 0 0 0 0 0 0 0 0 0 0 0 127 0" result="hardAlpha"/><feOffset/><feGaussianBlur stdDeviation="7.5"/><feComposite in2="hardAlpha" operator="out"/><feColorMatrix values="0 0 0 0 0.9125 0 0 0 0 0.438 0 0 0 0 0 0 0 0 0.9 0"/><feBlend in2="BackgroundImageFix" result="effect1_dropShadow_1170_120"/><feBlend in="SourceGraphic" in2="effect1_dropShadow_1170_120" result="shape"/></filter><filter id="filter7_d_1170_120" x="249.281" y="391.225" width="50" height="50" filterUnits="userSpaceOnUse" color-interpolation-filters="sRGB"><feFlood flood-opacity="0" result="BackgroundImageFix"/><feColorMatrix in="SourceAlpha" values="0 0 0 0 0 0 0 0 0 0 0 0 0 0 0 0 0 0 127 0" result="hardAlpha"/><feOffset/><feGaussianBlur stdDeviation="7.5"/><feComposite in2="hardAlpha" operator="out"/><feColorMatrix values="0 0 0 0 0.9125 0 0 0 0 0.438 0 0 0 0 0 0 0 0 0.9 0"/><feBlend in2="BackgroundImageFix" result="effect1_dropShadow_1170_120"/><feBlend in="SourceGraphic" in2="effect1_dropShadow_1170_120" result="shape"/></filter><filter id="filter8_d_1170_120" x="325.281" y="342.225" width="50" height="50" filterUnits="userSpaceOnUse" color-interpolation-filters="sRGB"><feFlood flood-opacity="0" result="BackgroundImageFix"/><feColorMatrix in="SourceAlpha" values="0 0 0 0 0 0 0 0 0 0 0 0 0 0 0 0 0 0 127 0" result="hardAlpha"/><feOffset/><feGaussianBlur stdDeviation="7.5"/><feComposite in2="hardAlpha" operator="out"/><feColorMatrix values="0 0 0 0 0.9125 0 0 0 0 0.438 0 0 0 0 0 0 0 0 0.9 0"/><feBlend in2="BackgroundImageFix" result="effect1_dropShadow_1170_120"/><feBlend in="SourceGraphic" in2="effect1_dropShadow_1170_120" result="shape"/></filter><filter id="filter9_d_1170_120" x="353.281" y="324.225" width="50" height="50" filterUnits="userSpaceOnUse" color-interpolation-filters="sRGB"><feFlood flood-opacity="0" result="BackgroundImageFix"/><feColorMatrix in="SourceAlpha" values="0 0 0 0 0 0 0 0 0 0 0 0 0 0 0 0 0 0 127 0" result="hardAlpha"/><feOffset/><feGaussianBlur stdDeviation="7.5"/><feComposite in2="hardAlpha" operator="out"/><feColorMatrix values="0 0 0 0 0.9125 0 0 0 0 0.438 0 0 0 0 0 0 0 0 0.9 0"/><feBlend in2="BackgroundImageFix" result="effect1_dropShadow_1170_120"/><feBlend in="SourceGraphic" in2="effect1_dropShadow_1170_120" result="shape"/></filter><filter id="filter10_d_1170_120" x="364.281" y="239.225" width="50" height="50" filterUnits="userSpaceOnUse" color-interpolation-filters="sRGB"><feFlood flood-opacity="0" result="BackgroundImageFix"/><feColorMatrix in="SourceAlpha" values="0 0 0 0 0 0 0 0 0 0 0 0 0 0 0 0 0 0 127 0" result="hardAlpha"/><feOffset/><feGaussianBlur stdDeviation="7.5"/><feComposite in2="hardAlpha" operator="out"/><feColorMatrix values="0 0 0 0 0.9125 0 0 0 0 0.438 0 0 0 0 0 0 0 0 0.9 0"/><feBlend in2="BackgroundImageFix" result="effect1_dropShadow_1170_120"/><feBlend in="SourceGraphic" in2="effect1_dropShadow_1170_120" result="shape"/></filter><filter id="filter11_d_1170_120" x="335.281" y="190.225" width="50" height="50" filterUnits="userSpaceOnUse" color-interpolation-filters="sRGB"><feFlood flood-opacity="0" result="BackgroundImageFix"/><feColorMatrix in="SourceAlpha" values="0 0 0 0 0 0 0 0 0 0 0 0 0 0 0 0 0 0 127 0" result="hardAlpha"/><feOffset/><feGaussianBlur stdDeviation="7.5"/><feComposite in2="hardAlpha" operator="out"/><feColorMatrix values="0 0 0 0 0.9125 0 0 0 0 0.438 0 0 0 0 0 0 0 0 0.9 0"/><feBlend in2="BackgroundImageFix" result="effect1_dropShadow_1170_120"/><feBlend in="SourceGraphic" in2="effect1_dropShadow_1170_120" result="shape"/></filter><filter id="filter12_d_1170_120" x="444.281" y="115.225" width="50" height="50" filterUnits="userSpaceOnUse" color-interpolation-filters="sRGB"><feFlood flood-opacity="0" result="BackgroundImageFix"/><feColorMatrix in="SourceAlpha" values="0 0 0 0 0 0 0 0 0 0 0 0 0 0 0 0 0 0 127 0" result="hardAlpha"/><feOffset/><feGaussianBlur stdDeviation="7.5"/><feComposite in2="hardAlpha" operator="out"/><feColorMatrix values="0 0 0 0 0.9125 0 0 0 0 0.438 0 0 0 0 0 0 0 0 0.9 0"/><feBlend in2="BackgroundImageFix" result="effect1_dropShadow_1170_120"/><feBlend in="SourceGraphic" in2="effect1_dropShadow_1170_120" result="shape"/></filter><filter id="filter13_d_1170_120" x="507.281" y="72.225" width="50" height="50" filterUnits="userSpaceOnUse" color-interpolation-filters="sRGB"><feFlood flood-opacity="0" result="BackgroundImageFix"/><feColorMatrix in="SourceAlpha" values="0 0 0 0 0 0 0 0 0 0 0 0 0 0 0 0 0 0 127 0" result="hardAlpha"/><feOffset/><feGaussianBlur stdDeviation="7.5"/><feComposite in2="hardAlpha" operator="out"/><feColorMatrix values="0 0 0 0 0.9125 0 0 0 0 0.438 0 0 0 0 0 0 0 0 0.9 0"/><feBlend in2="BackgroundImageFix" result="effect1_dropShadow_1170_120"/><feBlend in="SourceGraphic" in2="effect1_dropShadow_1170_120" result="shape"/></filter><filter id="filter14_d_1170_120" x="562.281" y="118.225" width="50" height="50" filterUnits="userSpaceOnUse" color-interpolation-filters="sRGB"><feFlood flood-opacity="0" result="BackgroundImageFix"/><feColorMatrix in="SourceAlpha" values="0 0 0 0 0 0 0 0 0 0 0 0 0 0 0 0 0 0 127 0" result="hardAlpha"/><feOffset/><feGaussianBlur stdDeviation="7.5"/><feComposite in2="hardAlpha" operator="out"/><feColorMatrix values="0 0 0 0 0.9125 0 0 0 0 0.438 0 0 0 0 0 0 0 0 0.9 0"/><feBlend in2="BackgroundImageFix" result="effect1_dropShadow_1170_120"/><feBlend in="SourceGraphic" in2="effect1_dropShadow_1170_120" result="shape"/></filter><filter id="filter15_d_1170_120" x="630.281" y="225.225" width="50" height="50" filterUnits="userSpaceOnUse" color-interpolation-filters="sRGB"><feFlood flood-opacity="0" result="BackgroundImageFix"/><feColorMatrix in="SourceAlpha" values="0 0 0 0 0 0 0 0 0 0 0 0 0 0 0 0 0 0 127 0" result="hardAlpha"/><feOffset/><feGaussianBlur stdDeviation="7.5"/><feComposite in2="hardAlpha" operator="out"/><feColorMatrix values="0 0 0 0 0.9125 0 0 0 0 0.438 0 0 0 0 0 0 0 0 0.9 0"/><feBlend in2="BackgroundImageFix" result="effect1_dropShadow_1170_120"/><feBlend in="SourceGraphic" in2="effect1_dropShadow_1170_120" result="shape"/></filter><filter id="filter16_d_1170_120" x="683.281" y="308.225" width="50" height="50" filterUnits="userSpaceOnUse" color-interpolation-filters="sRGB"><feFlood flood-opacity="0" result="BackgroundImageFix"/><feColorMatrix in="SourceAlpha" values="0 0 0 0 0 0 0 0 0 0 0 0 0 0 0 0 0 0 127 0" result="hardAlpha"/><feOffset/><feGaussianBlur stdDeviation="7.5"/><feComposite in2="hardAlpha" operator="out"/><feColorMatrix values="0 0 0 0 0.9125 0 0 0 0 0.438 0 0 0 0 0 0 0 0 0.9 0"/><feBlend in2="BackgroundImageFix" result="effect1_dropShadow_1170_120"/><feBlend in="SourceGraphic" in2="effect1_dropShadow_1170_120" result="shape"/></filter><filter id="filter17_d_1170_120" x="158.281" y="468.225" width="50" height="50" filterUnits="userSpaceOnUse" color-interpolation-filters="sRGB"><feFlood flood-opacity="0" result="BackgroundImageFix"/><feColorMatrix in="SourceAlpha" values="0 0 0 0 0 0 0 0 0 0 0 0 0 0 0 0 0 0 127 0" result="hardAlpha"/><feOffset/><feGaussianBlur stdDeviation="7.5"/><feComposite in2="hardAlpha" operator="out"/><feColorMatrix values="0 0 0 0 0.9125 0 0 0 0 0.438 0 0 0 0 0 0 0 0 0.9 0"/><feBlend in2="BackgroundImageFix" result="effect1_dropShadow_1170_120"/><feBlend in="SourceGraphic" in2="effect1_dropShadow_1170_120" result="shape"/></filter><filter id="filter18_d_1170_120" x="132" y="469" width="50" height="50" filterUnits="userSpaceOnUse" color-interpolation-filters="sRGB"><feFlood flood-opacity="0" result="BackgroundImageFix"/><feColorMatrix in="SourceAlpha" values="0 0 0 0 0 0 0 0 0 0 0 0 0 0 0 0 0 0 127 0" result="hardAlpha"/><feOffset/><feGaussianBlur stdDeviation="7.5"/><feComposite in2="hardAlpha" operator="out"/><feColorMatrix values="0 0 0 0 0.9125 0 0 0 0 0.438 0 0 0 0 0 0 0 0 0.9 0"/><feBlend in2="BackgroundImageFix" result="effect1_dropShadow_1170_120"/><feBlend in="SourceGraphic" in2="effect1_dropShadow_1170_120" result="shape"/></filter><filter id="filter19_d_1170_120" x="383" y="334" width="50" height="50" filterUnits="userSpaceOnUse" color-interpolation-filters="sRGB"><feFlood flood-opacity="0" result="BackgroundImageFix"/><feColorMatrix in="SourceAlpha" values="0 0 0 0 0 0 0 0 0 0 0 0 0 0 0 0 0 0 127 0" result="hardAlpha"/><feOffset/><feGaussianBlur stdDeviation="7.5"/><feComposite in2="hardAlpha" operator="out"/><feColorMatrix values="0 0 0 0 0.9125 0 0 0 0 0.438 0 0 0 0 0 0 0 0 0.9 0"/><feBlend in2="BackgroundImageFix" result="effect1_dropShadow_1170_120"/><feBlend in="SourceGraphic" in2="effect1_dropShadow_1170_120" result="shape"/></filter></defs></svg>